<svg xmlns="http://www.w3.org/2000/svg" width="22" height="22" viewBox="0 0 22 22" fill="none">
  <!-- Speech bubble -->
  <path d="M11 2C5.925 2 2 5.26 2 9.3c0 2.22 1.2 4.2 3.1 5.56L4 17.5c-.15.55.45.95.9.65l3.2-2.05c.9.25 1.88.4 2.9.4 5.075 0 9-3.26 9-7.3S16.075 2 11 2z" fill="white"/>
  <!-- Transfer arrows -->
  <g transform="translate(11, 8.5)">
    <!-- Top arrow (pointing right, flat bottom) -->
    <path d="M-4,-2.8 L2,-2.8 L2,-4.2 L4.5,-1.8 L2,0 L2,-1 L-4,-1 Z" fill="#000"/>
    <!-- Bottom arrow (pointing left, flat top) -->
    <path d="M4,1 L-2,1 L-2,-0.2 L-4.5,2 L-2,4.2 L-2,2.8 L4,2.8 Z" fill="#000"/>
  </g>
</svg>
